<svg width="57" height="59" viewBox="0 0 57 59" fill="none" xmlns="http://www.w3.org/2000/svg">
<mask id="mask0_295_606" style="mask-type:alpha" maskUnits="userSpaceOnUse" x="0" y="0" width="57" height="57">
<path d="M57 0.144043H0V56.9589H57V0.144043Z" fill="#D9D9D9"/>
</mask>
<g mask="url(#mask0_295_606)">
<path d="M44.9561 48.673L31.8621 35.6211L35.616 31.879L48.7104 44.9308L44.9561 48.673ZM12.0671 48.673L8.31285 44.9308L24.7693 28.5286L19.2242 23.0241L17.7446 24.4994L15.1048 21.8452V26.4022L13.6245 27.877L6.91992 21.1942L8.39955 19.7193H12.9714L10.3453 17.1242L17.1324 10.3597C17.8022 9.69172 18.5275 9.20307 19.3085 8.89374C20.0895 8.58403 20.9017 8.42917 21.7453 8.42917C22.5888 8.42917 23.4011 8.58403 24.182 8.89374C24.9631 9.20307 25.6883 9.69172 26.3581 10.3597L21.6722 15.0303L24.4582 17.8072L22.9784 19.282L28.523 24.7865L34.2324 19.0956C33.9676 18.6162 33.7742 18.1208 33.6523 17.6095C33.5304 17.0978 33.4695 16.5598 33.4695 15.9956C33.4695 13.865 34.2063 12.0653 35.68 10.5964C37.1536 9.12751 38.9592 8.39307 41.0967 8.39307C41.5994 8.39307 42.0798 8.43705 42.5377 8.52505C42.9961 8.61303 43.4567 8.7602 43.9195 8.96655L38.521 14.3474L42.7504 18.5629L48.1487 13.1821C48.3802 13.6433 48.5341 14.1024 48.61 14.5592C48.6861 15.0158 48.724 15.4945 48.724 15.9956C48.724 18.1261 47.9871 19.9259 46.5135 21.3948C45.0398 22.8638 43.2342 23.5982 41.0967 23.5982C40.5307 23.5982 39.9909 23.5436 39.4777 23.4341C38.9647 23.3248 38.4677 23.126 37.9867 22.8378L12.0671 48.673Z" fill="#005FFF"/>
</g>
</svg>
