<svg width="26" height="27" viewBox="0 0 26 27" fill="none" xmlns="http://www.w3.org/2000/svg">
<mask id="mask0_359_1382" style="mask-type:alpha" maskUnits="userSpaceOnUse" x="0" y="0" width="26" height="27">
<rect y="0.065918" width="26" height="26" fill="#D9D9D9"/>
</mask>
<g mask="url(#mask0_359_1382)">
<path d="M20.5063 22.274L14.5336 16.3011L16.2459 14.5886L22.2188 20.5615L20.5063 22.274ZM5.50433 22.274L3.79185 20.5615L11.2983 13.0554L8.76896 10.5364L8.09404 11.2115L6.88992 9.99686V12.0823L6.21473 12.7572L3.15648 9.69895L3.8314 9.02403H5.91681L4.71892 7.83642L7.81481 4.7408C8.12031 4.43512 8.45118 4.2115 8.80742 4.06994C9.16365 3.92821 9.53415 3.85734 9.91892 3.85734C10.3037 3.85734 10.6742 3.92821 11.0304 4.06994C11.3867 4.2115 11.7175 4.43512 12.023 4.7408L9.8856 6.87822L11.1564 8.14897L10.4814 8.82388L13.0105 11.3429L15.6148 8.73857C15.494 8.5192 15.4058 8.29251 15.3502 8.05851C15.2946 7.82433 15.2668 7.57814 15.2668 7.31994C15.2668 6.34494 15.6029 5.52134 16.2751 4.84913C16.9473 4.17692 17.7709 3.84082 18.7459 3.84082C18.9752 3.84082 19.1943 3.86095 19.4032 3.90122C19.6123 3.94148 19.8224 4.00883 20.0335 4.10326L17.571 6.56567L19.5002 8.49482L21.9626 6.0324C22.0682 6.24347 22.1384 6.45355 22.173 6.66263C22.2077 6.87154 22.225 7.09064 22.225 7.31994C22.225 8.29494 21.8889 9.11855 21.2167 9.79076C20.5445 10.463 19.7209 10.7991 18.7459 10.7991C18.4877 10.7991 18.2415 10.7741 18.0074 10.724C17.7734 10.674 17.5467 10.583 17.3273 10.4511L5.50433 22.274Z" fill="#5A5A5A"/>
</g>
</svg>
