<svg width="26" height="27" viewBox="0 0 26 27" fill="none" xmlns="http://www.w3.org/2000/svg">
<mask id="mask0_359_1400" style="mask-type:alpha" maskUnits="userSpaceOnUse" x="0" y="0" width="26" height="27">
<rect y="0.065918" width="26" height="26" fill="#D9D9D9"/>
</mask>
<g mask="url(#mask0_359_1400)">
<path d="M13.0001 23.3577C11.5764 23.3577 10.2385 23.0876 8.98631 22.5474C7.73415 22.0072 6.64495 21.274 5.7187 20.348C4.79245 19.4219 4.05922 18.3329 3.51899 17.0809C2.97859 15.8289 2.70839 14.4913 2.70839 13.068C2.70839 11.6445 2.97859 10.3065 3.51899 9.05396C4.05922 7.80144 4.79245 6.71197 5.7187 5.78554C6.64495 4.85911 7.73415 4.1256 8.98631 3.58502C10.2385 3.04462 11.5764 2.77441 13.0001 2.77441C15.5293 2.77441 17.7345 3.57057 19.6157 5.16289C21.4969 6.75521 22.6583 8.74791 23.1 11.141C22.8223 11.0161 22.5391 10.9214 22.2504 10.8572C21.9617 10.7929 21.6629 10.7549 21.3542 10.7431C20.9972 9.45289 20.3771 8.30537 19.4938 7.30058C18.6105 6.29561 17.5293 5.53827 16.2501 5.02856V5.48275C16.2501 6.07858 16.0379 6.58865 15.6136 7.01296C15.1893 7.43726 14.6792 7.64941 14.0834 7.64941H11.9167V9.81608C11.9167 10.123 11.8129 10.3803 11.6053 10.588C11.3976 10.7956 11.1403 10.8994 10.8334 10.8994H8.66672V13.0661H15.1667C15.3525 13.0661 15.5258 13.1105 15.6865 13.1993C15.847 13.2883 15.9758 13.4127 16.0729 13.5723C15.7862 14.0426 15.567 14.5391 15.4153 15.0616C15.2635 15.5839 15.1876 16.1236 15.1876 16.6806C15.1876 17.7417 15.4618 18.7355 16.0104 19.662C16.5591 20.5882 17.1161 21.4479 17.6814 22.2411C16.9688 22.6022 16.2219 22.8786 15.4408 23.0701C14.6595 23.2619 13.846 23.3577 13.0001 23.3577ZM11.9167 21.6786V19.5661C11.3209 19.5661 10.8108 19.3539 10.3865 18.9296C9.96221 18.5053 9.75006 17.9952 9.75006 17.3994V16.3161L4.55006 11.1161C4.49589 11.4411 4.44624 11.7661 4.4011 12.0911C4.35596 12.4161 4.33339 12.7411 4.33339 13.0661C4.33339 15.2508 5.0511 17.1647 6.48651 18.8077C7.92193 20.4508 9.732 21.4077 11.9167 21.6786ZM21.1251 23.3577C21.0333 23.3577 20.9525 23.3306 20.8827 23.2762C20.8126 23.2219 20.7636 23.1539 20.7356 23.0723C20.537 22.4472 20.2623 21.8656 19.9115 21.3276C19.5608 20.7893 19.1813 20.2619 18.7729 19.7451C18.4215 19.3035 18.132 18.8254 17.9043 18.3108C17.6764 17.7962 17.5625 17.2513 17.5625 16.676C17.5625 15.6943 17.9104 14.8559 18.606 14.1608C19.3017 13.4657 20.1417 13.1181 21.1259 13.1181C22.1101 13.1181 22.9498 13.4659 23.6449 14.1616C24.34 14.8571 24.6876 15.6968 24.6876 16.6806C24.6876 17.2501 24.5717 17.7901 24.3398 18.3007C24.108 18.8115 23.8205 19.293 23.4772 19.7451C23.0757 20.2687 22.6972 20.7981 22.3416 21.3333C21.9859 21.8684 21.7102 22.4481 21.5145 23.0723C21.4865 23.1539 21.4375 23.2219 21.3675 23.2762C21.2976 23.3306 21.2168 23.3577 21.1251 23.3577ZM21.1251 20.8287C21.3264 20.4869 21.5423 20.1661 21.7729 19.8662C22.0035 19.5661 22.2285 19.2633 22.4481 18.9578C22.7009 18.6223 22.922 18.2648 23.1116 17.8853C23.3012 17.5058 23.396 17.1042 23.396 16.6806C23.396 16.0501 23.1751 15.5141 22.7333 15.0724C22.2916 14.6306 21.7556 14.4097 21.1251 14.4097C20.4946 14.4097 19.9585 14.6306 19.5168 15.0724C19.075 15.5141 18.8541 16.0501 18.8541 16.6806C18.8541 17.1042 18.9489 17.5058 19.1385 17.8853C19.3281 18.2648 19.5493 18.6223 19.802 18.9578C20.0396 19.2633 20.2692 19.5678 20.4908 19.8713C20.7123 20.1748 20.9237 20.494 21.1251 20.8287ZM21.1562 17.8265C20.8354 17.8265 20.5643 17.7157 20.3429 17.4942C20.1213 17.2727 20.0106 17.0015 20.0106 16.6806C20.0106 16.3598 20.1213 16.0886 20.3429 15.867C20.5643 15.6455 20.8354 15.5347 21.1562 15.5347C21.4771 15.5347 21.7482 15.6455 21.9698 15.867C22.1913 16.0886 22.3021 16.3598 22.3021 16.6806C22.3021 17.0015 22.1913 17.2727 21.9698 17.4942C21.7482 17.7157 21.4771 17.8265 21.1562 17.8265Z" fill="#5A5A5A"/>
</g>
</svg>
