<svg width="57" height="59" viewBox="0 0 57 59" fill="none" xmlns="http://www.w3.org/2000/svg">
<mask id="mask0_295_642" style="mask-type:alpha" maskUnits="userSpaceOnUse" x="0" y="0" width="57" height="57">
<path d="M57 0.144043H0V56.9589H57V0.144043Z" fill="#D9D9D9"/>
</mask>
<g mask="url(#mask0_295_642)">
<path d="M28.5001 51.0408C25.3789 51.0408 22.4458 50.4506 19.7006 49.2701C16.9555 48.0897 14.5677 46.4875 12.537 44.464C10.5064 42.4403 8.89894 40.0607 7.71458 37.3248C6.52986 34.589 5.9375 31.6661 5.9375 28.5559C5.9375 25.4453 6.52986 22.5215 7.71458 19.7845C8.89894 17.0475 10.5064 14.6668 12.537 12.6424C14.5677 10.618 16.9555 9.0151 19.7006 7.83383C22.4458 6.65296 25.3789 6.0625 28.5001 6.0625C34.0449 6.0625 38.8794 7.80226 43.0035 11.2818C47.1277 14.7613 49.6738 19.1157 50.6422 24.345C50.0334 24.0721 49.4125 23.8652 48.7796 23.7249C48.1467 23.5844 47.4916 23.5013 46.8149 23.4756C46.0322 20.6562 44.6727 18.1487 42.7363 15.953C40.7998 13.757 38.4295 12.102 35.6251 10.9882V11.9807C35.6251 13.2827 35.1599 14.3973 34.2297 15.3245C33.2995 16.2517 32.1812 16.7153 30.875 16.7153H26.1249V21.4499C26.1249 22.1205 25.8974 22.6828 25.4423 23.1366C24.9869 23.5903 24.4228 23.8171 23.75 23.8171H19V28.5517H33.2499C33.6573 28.5517 34.0372 28.6488 34.3895 28.8428C34.7414 29.0373 35.0237 29.3091 35.2366 29.6579C34.6081 30.6856 34.1275 31.7705 33.795 32.9123C33.4622 34.0536 33.2958 35.233 33.2958 36.4501C33.2958 38.7688 33.8969 40.9404 35.0996 42.965C36.3025 44.9889 37.5236 46.8675 38.7629 48.6008C37.2007 49.3899 35.5633 49.9939 33.8509 50.4123C32.138 50.8315 30.3546 51.0408 28.5001 51.0408ZM26.1249 47.3717V42.7555C24.8188 42.7555 23.7005 42.2918 22.7703 41.3646C21.8401 40.4374 21.375 39.3227 21.375 38.0208V35.6536L9.97501 24.2906C9.85625 25.0008 9.7474 25.711 9.64844 26.4212C9.54948 27.1314 9.5 27.8416 9.5 28.5517C9.5 33.3257 11.0734 37.5079 14.2203 41.0982C17.3672 44.6887 21.3354 46.7797 26.1249 47.3717ZM46.3126 51.0408C46.1113 51.0408 45.9342 50.9816 45.7812 50.8627C45.6275 50.7441 45.5201 50.5955 45.4587 50.4171C45.0233 49.0512 44.4211 47.7803 43.652 46.6047C42.8832 45.4284 42.0512 44.2759 41.1558 43.1466C40.3855 42.1816 39.7508 41.1369 39.2516 40.0124C38.752 38.8879 38.5023 37.6972 38.5023 36.44C38.5023 34.2949 39.265 32.4628 40.79 30.9439C42.3151 29.4249 44.1567 28.6654 46.3144 28.6654C48.472 28.6654 50.3129 29.4254 51.8368 30.9456C53.3606 32.4654 54.1227 34.3003 54.1227 36.4501C54.1227 37.6946 53.8686 38.8746 53.3602 39.9903C52.852 41.1065 52.2217 42.1587 51.4691 43.1466C50.5889 44.2908 49.7591 45.4476 48.9795 46.6171C48.1997 47.7864 47.5953 49.0532 47.1663 50.4171C47.1049 50.5955 46.9975 50.7441 46.844 50.8627C46.6908 50.9816 46.5136 51.0408 46.3126 51.0408ZM46.3126 45.5145C46.7539 44.7676 47.2272 44.0666 47.7328 43.4112C48.2383 42.7555 48.7316 42.0938 49.213 41.4262C49.7672 40.6931 50.252 39.9119 50.6676 39.0826C51.0833 38.2533 51.2911 37.3757 51.2911 36.4501C51.2911 35.0723 50.8068 33.9011 49.8383 32.9359C48.8699 31.9705 47.6948 31.4878 46.3126 31.4878C44.9303 31.4878 43.7551 31.9705 42.7867 32.9359C41.8181 33.9011 41.3339 35.0723 41.3339 36.4501C41.3339 37.3757 41.5417 38.2533 41.9574 39.0826C42.373 39.9119 42.858 40.6931 43.412 41.4262C43.9328 42.0938 44.4362 42.7592 44.922 43.4224C45.4076 44.0856 45.8711 44.7831 46.3126 45.5145ZM46.3808 38.9541C45.6775 38.9541 45.0831 38.712 44.5978 38.228C44.112 37.7439 43.8693 37.1513 43.8693 36.4501C43.8693 35.7491 44.112 35.1565 44.5978 34.6722C45.0831 34.1882 45.6775 33.9461 46.3808 33.9461C47.0843 33.9461 47.6786 34.1882 48.1644 34.6722C48.65 35.1565 48.8929 35.7491 48.8929 36.4501C48.8929 37.1513 48.65 37.7439 48.1644 38.228C47.6786 38.712 47.0843 38.9541 46.3808 38.9541Z" fill="#005FFF"/>
</g>
</svg>
