<svg width="57" height="59" viewBox="0 0 57 59" fill="none" xmlns="http://www.w3.org/2000/svg">
<mask id="mask0_295_618" style="mask-type:alpha" maskUnits="userSpaceOnUse" x="0" y="0" width="57" height="57">
<path d="M57 0.144043H0V56.9589H57V0.144043Z" fill="#D9D9D9"/>
</mask>
<g mask="url(#mask0_295_618)">
<path d="M28.5 48.6969C27.955 48.6969 27.4242 48.5953 26.9082 48.392C26.3921 48.1888 25.9376 47.8838 25.545 47.4771L10.089 32.0121C8.70358 30.6313 7.66532 29.0645 6.9742 27.312C6.28307 25.559 5.9375 23.7462 5.9375 21.8737C5.9375 18.144 7.13411 14.9559 9.52732 12.3093C11.9205 9.66266 14.8831 8.33936 18.4152 8.33936C20.1782 8.33936 21.8551 8.69523 23.4461 9.40699C25.0372 10.1188 26.4554 11.115 27.7009 12.3957L28.5 13.2378L29.2535 12.4413C30.4897 11.1302 31.9071 10.1188 33.5059 9.40699C35.1043 8.69523 36.7775 8.33936 38.5254 8.33936C42.0574 8.33936 45.03 9.66266 47.4431 12.3093C49.8559 14.9559 51.0626 18.1243 51.0626 21.8145C51.0626 23.7025 50.7109 25.5228 50.0074 27.2753C49.3041 29.0282 48.272 30.5952 46.911 31.976L31.3958 47.4771C30.9876 47.8838 30.5391 48.1888 30.0504 48.392C29.5617 48.5953 29.045 48.6969 28.5 48.6969ZM30.8749 19.6751C31.1794 19.6751 31.464 19.7471 31.7288 19.8911C31.9941 20.0355 32.2026 20.2277 32.3547 20.4675L36.5519 26.7768H46.3173C46.7312 25.9847 47.0419 25.1714 47.2488 24.3369C47.4558 23.5023 47.5518 22.6617 47.5369 21.8145C47.4727 19.0921 46.585 16.7696 44.8739 14.847C43.1626 12.9244 41.0466 11.9631 38.5254 11.9631C37.2679 11.9631 36.052 12.2112 34.8781 12.7076C33.7045 13.2039 32.6866 13.9285 31.8251 14.8813L29.9476 16.8935C29.7652 17.1153 29.5459 17.28 29.2903 17.3877C29.0345 17.4954 28.7712 17.5493 28.5 17.5493C28.2288 17.5493 27.9618 17.4915 27.6985 17.3759C27.4352 17.2607 27.2002 17.0999 26.993 16.8935L25.1157 14.8813C24.2539 13.9285 23.2422 13.1917 22.0805 12.6709C20.919 12.1505 19.6973 11.8903 18.4152 11.8903C15.8941 11.8903 13.778 12.8638 12.0668 14.8109C10.3556 16.7576 9.5 19.0921 9.5 21.8145C9.5 22.6766 9.59738 23.5211 9.79213 24.348C9.98728 25.1751 10.2841 25.9847 10.6828 26.7768H21.375C21.6794 26.7768 21.9603 26.8489 22.2175 26.9929C22.4749 27.1374 22.6796 27.3295 22.832 27.5694L25.5954 31.6708L29.1899 20.9226C29.3177 20.5553 29.5323 20.2557 29.8336 20.0237C30.1352 19.7913 30.4823 19.6751 30.8749 19.6751ZM31.4046 25.434L27.8101 36.1821C27.6823 36.5494 27.4578 36.8492 27.1368 37.0811C26.8154 37.3136 26.4583 37.4296 26.0656 37.4296C25.7611 37.4296 25.4803 37.3577 25.2231 37.2137C24.9658 37.0693 24.761 36.8772 24.6086 36.6373L20.3888 30.3278H13.4413L28.0843 44.9458C28.1635 45.0247 28.2327 45.074 28.2922 45.0937C28.3516 45.1136 28.4208 45.1234 28.5 45.1234C28.5791 45.1234 28.6484 45.1136 28.7078 45.0937C28.7672 45.074 28.8365 45.0247 28.9156 44.9458L43.5219 30.3278H35.625C35.3207 30.3278 35.0359 30.2519 34.7711 30.1001C34.506 29.9484 34.285 29.7528 34.1086 29.5129L31.4046 25.434Z" fill="#005FFF"/>
</g>
</svg>
