<svg width="26" height="27" viewBox="0 0 26 27" fill="none" xmlns="http://www.w3.org/2000/svg">
<mask id="mask0_359_1388" style="mask-type:alpha" maskUnits="userSpaceOnUse" x="0" y="0" width="26" height="27">
<rect y="0.065918" width="26" height="26" fill="#D9D9D9"/>
</mask>
<g mask="url(#mask0_359_1388)">
<path d="M13.0002 22.2851C12.7516 22.2851 12.5095 22.2386 12.2741 22.1456C12.0387 22.0526 11.8314 21.913 11.6523 21.7269L4.60221 14.6497C3.97026 14.0178 3.49667 13.3008 3.18142 12.4988C2.86617 11.6966 2.70854 10.867 2.70854 10.0101C2.70854 8.3033 3.25436 6.84432 4.346 5.63316C5.43764 4.42199 6.78901 3.81641 8.4001 3.81641C9.2043 3.81641 9.96922 3.97927 10.6949 4.30499C11.4207 4.63071 12.0676 5.08661 12.6357 5.6727L13.0002 6.05809L13.3439 5.69355C13.9078 5.09357 14.5543 4.63071 15.2836 4.30499C16.0127 3.97927 16.7759 3.81641 17.5732 3.81641C19.1843 3.81641 20.5402 4.42199 21.6409 5.63316C22.7415 6.84432 23.2919 8.29427 23.2919 9.98301C23.2919 10.847 23.1315 11.68 22.8106 12.482C22.4898 13.2842 22.019 14.0013 21.3982 14.6332L14.3211 21.7269C14.1349 21.913 13.9303 22.0526 13.7074 22.1456C13.4845 22.2386 13.2488 22.2851 13.0002 22.2851ZM14.0835 9.00395C14.2224 9.00395 14.3522 9.0369 14.473 9.1028C14.594 9.16889 14.6891 9.25682 14.7585 9.36659L16.673 12.2539H21.1274C21.3162 11.8914 21.4579 11.5192 21.5523 11.1373C21.6467 10.7554 21.6905 10.3707 21.6837 9.98301C21.6544 8.73718 21.2495 7.67434 20.469 6.79449C19.6884 5.91464 18.7232 5.47472 17.5732 5.47472C16.9996 5.47472 16.445 5.58829 15.9095 5.81543C15.3742 6.04257 14.9099 6.37416 14.5169 6.8102L13.6605 7.73103C13.5773 7.8325 13.4773 7.90788 13.3607 7.95718C13.244 8.00647 13.1239 8.03111 13.0002 8.03111C12.8765 8.03111 12.7547 8.00466 12.6346 7.95176C12.5145 7.89904 12.4073 7.82546 12.3128 7.73103L11.4565 6.8102C11.0634 6.37416 10.6019 6.03697 10.072 5.79864C9.54221 5.56048 8.98492 5.44141 8.4001 5.44141C7.25015 5.44141 6.2849 5.88693 5.50435 6.77797C4.72381 7.66883 4.33354 8.73718 4.33354 9.98301C4.33354 10.3775 4.37796 10.764 4.46679 11.1424C4.55581 11.5209 4.69122 11.8914 4.87304 12.2539H9.75021C9.88906 12.2539 10.0172 12.2869 10.1345 12.3528C10.2519 12.4189 10.3453 12.5068 10.4148 12.6166L11.6753 14.4935L13.3149 9.57486C13.3732 9.40677 13.4711 9.26964 13.6085 9.16347C13.7461 9.05712 13.9044 9.00395 14.0835 9.00395ZM14.3251 11.6394L12.6855 16.558C12.6272 16.7261 12.5248 16.8633 12.3784 16.9694C12.2318 17.0758 12.0689 17.1289 11.8898 17.1289C11.7509 17.1289 11.6228 17.096 11.5055 17.0301C11.3881 16.964 11.2947 16.8761 11.2252 16.7663L9.30035 13.8789H6.13133L12.8106 20.5685C12.8467 20.6046 12.8783 20.6272 12.9054 20.6362C12.9325 20.6453 12.9641 20.6498 13.0002 20.6498C13.0363 20.6498 13.0679 20.6453 13.095 20.6362C13.1221 20.6272 13.1537 20.6046 13.1898 20.5685L19.8523 13.8789H16.2502C16.1114 13.8789 15.9815 13.8442 15.8607 13.7747C15.7398 13.7053 15.639 13.6158 15.5585 13.506L14.3251 11.6394Z" fill="#5A5A5A"/>
</g>
</svg>
