<svg width="57" height="59" viewBox="0 0 57 59" fill="none" xmlns="http://www.w3.org/2000/svg">
<mask id="mask0_295_636" style="mask-type:alpha" maskUnits="userSpaceOnUse" x="0" y="0" width="57" height="57">
<path d="M57 0.144043H0V56.9589H57V0.144043Z" fill="#D9D9D9"/>
</mask>
<g mask="url(#mask0_295_636)">
<path d="M10.7839 27.8231C9.88817 27.8231 9.14576 27.5313 8.55678 26.9477C7.96737 26.3638 7.67268 25.6256 7.67268 24.7332C7.67268 23.8403 7.9656 23.1 8.55143 22.5126C9.13686 21.9255 9.87747 21.632 10.7732 21.632C11.669 21.632 12.4114 21.9239 13.0004 22.5078C13.5898 23.0915 13.8845 23.8296 13.8845 24.7225C13.8845 25.6154 13.5916 26.3553 13.0057 26.9424C12.4203 27.5296 11.6797 27.8231 10.7839 27.8231ZM7.94699 51.6326V40.9798H5.8457V31.9657C5.8457 31.4627 6.01651 31.0412 6.35811 30.701C6.69932 30.3605 7.12226 30.1903 7.62695 30.1903H13.9296C14.4343 30.1903 14.8574 30.3605 15.1991 30.701C15.5403 31.0412 15.7109 31.4627 15.7109 31.9657V40.9798H13.6102V48.0817H33.9347V34.9249H29.1849C26.6942 34.9249 24.5872 34.0699 22.8638 32.3599C21.1403 30.6496 20.2786 28.5909 20.2786 26.1842C20.2786 24.2754 20.8312 22.5629 21.9362 21.0467C23.0418 19.5308 24.4624 18.3936 26.1976 17.6348C26.4658 15.1007 27.5222 13.0088 29.3677 11.3592C31.2128 9.70956 33.3288 8.88477 35.716 8.88477C38.1034 8.88477 40.2194 9.70956 42.0645 11.3592C43.9097 13.0088 44.9662 15.1007 45.2339 17.6348C46.9695 18.3936 48.3902 19.5308 49.4953 21.0467C50.6009 22.5629 51.1536 24.2754 51.1536 26.1842C51.1536 28.5909 50.2918 30.6496 48.5684 32.3599C46.845 34.0699 44.738 34.9249 42.2473 34.9249H37.4972V48.0817H49.3723V51.6326H7.94699ZM29.1849 31.374H42.2473C43.7361 31.374 44.9989 30.8742 46.0361 29.875C47.0728 28.8755 47.5911 27.6452 47.5911 26.1842C47.5911 25.0129 47.2469 23.9664 46.5585 23.0452C45.8705 22.1243 44.9785 21.4318 43.8825 20.9674L41.8911 20.1294L41.672 18.0716C41.5256 16.4907 40.8889 15.1561 39.7625 14.0679C38.6359 12.9798 37.2872 12.4357 35.716 12.4357C34.145 12.4357 32.796 12.9798 31.669 14.0679C30.5426 15.1561 29.9061 16.4907 29.7601 18.0716L29.5411 20.1294L27.5496 20.9674C26.4535 21.4318 25.5614 22.1243 24.873 23.0452C24.1851 23.9664 23.8411 25.0129 23.8411 26.1842C23.8411 27.6452 24.3594 28.8755 25.3961 29.875C26.4329 30.8742 27.6956 31.374 29.1849 31.374Z" fill="#005FFF"/>
</g>
</svg>
