<svg width="26" height="27" viewBox="0 0 26 27" fill="none" xmlns="http://www.w3.org/2000/svg">
<mask id="mask0_359_1397" style="mask-type:alpha" maskUnits="userSpaceOnUse" x="0" y="0" width="26" height="27">
<rect y="0.065918" width="26" height="26" fill="#D9D9D9"/>
</mask>
<g mask="url(#mask0_359_1397)">
<path d="M4.91938 12.7326C4.51079 12.7326 4.17215 12.5991 3.90349 12.332C3.63464 12.0648 3.50022 11.727 3.50022 11.3186C3.50022 10.91 3.63383 10.5712 3.90105 10.3024C4.16809 10.0337 4.50591 9.8994 4.91451 9.8994C5.32311 9.8994 5.66174 10.033 5.9304 10.3002C6.19925 10.5673 6.33368 10.9051 6.33368 11.3137C6.33368 11.7223 6.20006 12.0609 5.93284 12.3296C5.6658 12.5983 5.32798 12.7326 4.91938 12.7326ZM3.62534 23.6285V18.7535H2.66686V14.6284C2.66686 14.3982 2.74477 14.2053 2.90059 14.0496C3.05623 13.8938 3.24915 13.8159 3.47936 13.8159H6.35426C6.58447 13.8159 6.77748 13.8938 6.9333 14.0496C7.08894 14.2053 7.16676 14.3982 7.16676 14.6284V18.7535H6.20855V22.0035H15.4794V15.9826H13.3128C12.1767 15.9826 11.2156 15.5913 10.4295 14.8088C9.64335 14.0261 9.25028 13.084 9.25028 11.9826C9.25028 11.1091 9.50233 10.3254 10.0064 9.63154C10.5107 8.93785 11.1587 8.4174 11.9502 8.07019C12.0725 6.91048 12.5544 5.95318 13.3962 5.19827C14.2378 4.44337 15.203 4.06592 16.2919 4.06592C17.3809 4.06592 18.3461 4.44337 19.1877 5.19827C20.0294 5.95318 20.5113 6.91048 20.6334 8.07019C21.4251 8.4174 22.0731 8.93785 22.5772 9.63154C23.0815 10.3254 23.3336 11.1091 23.3336 11.9826C23.3336 13.084 22.9405 14.0261 22.1544 14.8088C21.3683 15.5913 20.4072 15.9826 19.2711 15.9826H17.1044V22.0035H22.5211V23.6285H3.62534ZM13.3128 14.3576H19.2711C19.9502 14.3576 20.5262 14.1289 20.9993 13.6716C21.4722 13.2142 21.7086 12.6512 21.7086 11.9826C21.7086 11.4466 21.5516 10.9677 21.2376 10.5461C20.9238 10.1247 20.5169 9.80777 20.017 9.59525L19.1086 9.21175L19.0087 8.27006C18.9419 7.54658 18.6515 6.93585 18.1377 6.43788C17.6238 5.9399 17.0086 5.69092 16.2919 5.69092C15.5753 5.69092 14.96 5.9399 14.4459 6.43788C13.9321 6.93585 13.6418 7.54658 13.5752 8.27006L13.4753 9.21175L12.5669 9.59525C12.0669 9.80777 11.66 10.1247 11.346 10.5461C11.0322 10.9677 10.8753 11.4466 10.8753 11.9826C10.8753 12.6512 11.1117 13.2142 11.5846 13.6716C12.0575 14.1289 12.6335 14.3576 13.3128 14.3576Z" fill="#5A5A5A"/>
</g>
</svg>
