<svg width="56" height="59" viewBox="0 0 56 59" fill="none" xmlns="http://www.w3.org/2000/svg">
<mask id="mask0_295_630" style="mask-type:alpha" maskUnits="userSpaceOnUse" x="0" y="0" width="56" height="57">
<path d="M56 0.144043H0V56.9589H56V0.144043Z" fill="#D9D9D9"/>
</mask>
<g mask="url(#mask0_295_630)">
<path d="M14.4655 51.3589L17.3909 44.6849C16.787 44.2359 16.206 43.7816 15.6479 43.322C15.0899 42.8618 14.5551 42.3573 14.0437 41.8081C13.7626 41.9263 13.4799 42.0153 13.1956 42.0743C12.9113 42.1335 12.6167 42.1632 12.3118 42.1632C11.1183 42.1632 10.0944 41.7299 9.23998 40.8635C8.38598 39.997 7.95898 38.9582 7.95898 37.747C7.95898 37.0339 8.11318 36.3709 8.42157 35.7578C8.72957 35.1446 9.15269 34.6363 9.69091 34.2327C9.37979 33.3252 9.15853 32.4079 9.02708 31.4807C8.89563 30.5535 8.82991 29.577 8.82991 28.5513C8.82991 27.5253 8.89563 26.549 9.02708 25.6218C9.15853 24.6946 9.37979 23.7773 9.69091 22.8698C9.15269 22.4662 8.72957 21.9577 8.42157 21.3446C8.11318 20.7315 7.95898 20.0685 7.95898 19.3555C7.95898 18.1443 8.38598 17.1054 9.23998 16.239C10.0944 15.3726 11.1183 14.9394 12.3118 14.9394C12.6167 14.9394 12.9113 14.969 13.1956 15.0281C13.4799 15.0873 13.7626 15.1761 14.0437 15.2945C15.3271 13.8741 16.7878 12.6867 18.4258 11.7323C20.0634 10.7779 21.8155 10.0714 23.6821 9.61298C23.8466 8.52048 24.3439 7.60237 25.1742 6.85864C26.0041 6.11531 26.9578 5.74365 28.035 5.74365C29.1119 5.74365 30.0652 6.11393 30.8951 6.85449C31.7254 7.59466 32.2227 8.49897 32.3873 9.5674C34.2839 10.0259 36.051 10.7262 37.6885 11.6684C39.3265 12.6109 40.7873 13.7802 42.0705 15.1761C42.3518 15.0577 42.621 14.9766 42.8784 14.9329C43.1356 14.8887 43.4046 14.8666 43.6859 14.8666C44.8794 14.8666 45.9033 15.2998 46.7577 16.1662C47.6117 17.0326 48.0386 18.0715 48.0386 19.2827C48.0386 19.9957 47.8904 20.6465 47.5941 21.2352C47.2981 21.8242 46.893 22.3206 46.3784 22.7242C46.6897 23.6558 46.9109 24.6035 47.0422 25.5674C47.1741 26.5308 47.24 27.5253 47.24 28.5513C47.24 29.577 47.1741 30.5732 47.0422 31.5399C46.9109 32.5067 46.6897 33.4437 46.3784 34.3512C46.8779 34.7548 47.2721 35.2434 47.5609 35.817C47.8495 36.3906 47.9938 37.0339 47.9938 37.747C47.9938 38.9582 47.5667 39.997 46.7127 40.8635C45.8587 41.7299 44.8348 42.1632 43.6409 42.1632C43.3598 42.1632 43.0906 42.1372 42.8336 42.0856C42.576 42.0339 42.3068 41.9565 42.0257 41.8536C41.5142 42.4027 40.993 42.9195 40.4618 43.4035C39.9309 43.8878 39.3364 44.3543 38.6784 44.8031L41.4873 51.3589H38.1576L35.9859 46.2875C35.3815 46.5701 34.7892 46.8113 34.209 47.0113C33.6287 47.2116 33.0216 47.3862 32.3873 47.5351C32.2227 48.6036 31.7254 49.5078 30.8951 50.248C30.0652 50.9885 29.1119 51.3589 28.035 51.3589C26.9578 51.3589 26.0041 50.9872 25.1742 50.2438C24.3439 49.5002 23.8466 48.582 23.6821 47.4896C23.0241 47.3408 22.399 47.1662 21.8067 46.9658C21.2145 46.7657 20.6161 46.5244 20.0118 46.2419L17.7951 51.3589H14.4655ZM18.4053 42.1999L22.5155 32.8668C22.0458 32.2628 21.6816 31.5952 21.4229 30.8641C21.1643 30.1327 21.035 29.3617 21.035 28.5513C21.035 26.6211 21.7259 24.9549 23.1076 23.5527C24.4898 22.1504 26.1321 21.4494 28.035 21.4494C29.9375 21.4494 31.5798 22.1504 32.9619 23.5527C34.3436 24.9549 35.0343 26.6211 35.0343 28.5513C35.0343 29.3617 34.8918 30.1484 34.6062 30.9115C34.3203 31.675 33.9307 32.3662 33.4373 32.9852L37.5474 42.2454C37.9873 41.9143 38.4098 41.5828 38.815 41.2505C39.2206 40.9179 39.6087 40.5361 39.9794 40.1054C39.7254 39.7748 39.5466 39.4068 39.4433 39.0017C39.3401 38.5963 39.2886 38.1781 39.2886 37.747C39.2886 36.4844 39.75 35.4186 40.6729 34.5494C41.5958 33.6797 42.657 33.289 43.8567 33.377C44.09 32.588 44.2724 31.8008 44.404 31.0161C44.5358 30.2319 44.6017 29.4103 44.6017 28.5513C44.6017 27.6923 44.5358 26.8584 44.404 26.0497C44.2724 25.2407 44.09 24.4418 43.8567 23.6527C42.657 23.7408 41.6031 23.3499 40.6951 22.4804C39.7874 21.6112 39.3336 20.5453 39.3336 19.2827C39.3336 18.8819 39.4008 18.4911 39.5354 18.1103C39.6701 17.7292 39.8329 17.3733 40.0242 17.0427C38.8964 15.8527 37.6409 14.8595 36.2577 14.0629C34.8741 13.2663 33.4015 12.651 31.84 12.217C31.487 12.9331 30.9761 13.5052 30.3077 13.9333C29.6387 14.3613 28.8812 14.5754 28.035 14.5754C27.1883 14.5754 26.4306 14.3613 25.7618 13.9333C25.0933 13.5052 24.5824 12.9331 24.2294 12.217C22.62 12.651 21.1237 13.2724 19.74 14.0812C18.3567 14.8901 17.1012 15.9015 15.9734 17.1155C16.1647 17.4461 16.3277 17.802 16.4622 18.1831C16.5968 18.5639 16.6641 18.9547 16.6641 19.3555C16.6641 20.6331 16.2147 21.693 15.316 22.5354C14.4169 23.3774 13.3677 23.774 12.1683 23.7255C11.935 24.5146 11.76 25.3015 11.6433 26.0864C11.5267 26.8706 11.4683 27.6923 11.4683 28.5513C11.4683 29.4103 11.5267 30.2319 11.6433 31.0161C11.76 31.8008 11.935 32.588 12.1683 33.377C13.3377 33.289 14.3793 33.6757 15.2932 34.5376C16.2071 35.3996 16.6641 36.4695 16.6641 37.747C16.6641 38.1781 16.6126 38.5767 16.5095 38.9425C16.406 39.3083 16.2273 39.6564 15.9734 39.987C16.344 40.4179 16.7321 40.804 17.1377 41.1458C17.543 41.4871 17.9655 41.8385 18.4053 42.1999ZM21.0974 43.7562C21.5851 43.9994 22.0899 44.211 22.6118 44.3912C23.1341 44.5719 23.6732 44.7367 24.2294 44.8855C24.5824 44.1694 25.0933 43.5974 25.7618 43.1693C26.4306 42.7412 27.1883 42.5271 28.035 42.5271C28.8812 42.5271 29.6387 42.7412 30.3077 43.1693C30.9761 43.5974 31.487 44.1694 31.84 44.8855C32.3814 44.7367 32.8973 44.5798 33.3877 44.4144C33.8784 44.2492 34.3677 44.0449 34.8554 43.8019L30.9784 34.9702C30.5266 35.1824 30.0592 35.3494 29.5761 35.4709C29.0932 35.5924 28.5795 35.6531 28.035 35.6531C27.4664 35.6531 26.927 35.5862 26.4168 35.4525C25.907 35.3192 25.426 35.1188 24.9742 34.8518L21.0974 43.7562ZM28.035 32.1022C28.9682 32.1022 29.785 31.7668 30.485 31.0961C31.185 30.4253 31.535 29.577 31.535 28.5513C31.535 27.6044 31.185 26.7758 30.485 26.0656C29.785 25.3554 28.9682 25.0003 28.035 25.0003C27.024 25.0003 26.1878 25.3554 25.5266 26.0656C24.8656 26.7758 24.535 27.6044 24.535 28.5513C24.535 29.577 24.8656 30.4253 25.5266 31.0961C26.1878 31.7668 27.024 32.1022 28.035 32.1022Z" fill="#005FFF"/>
</g>
</svg>
