<svg width="26" height="27" viewBox="0 0 26 27" fill="none" xmlns="http://www.w3.org/2000/svg">
<mask id="mask0_359_1394" style="mask-type:alpha" maskUnits="userSpaceOnUse" x="0" y="0" width="26" height="27">
<rect y="0.065918" width="26" height="26" fill="#D9D9D9"/>
</mask>
<g mask="url(#mask0_359_1394)">
<path d="M6.71648 23.5032L8.07471 20.449C7.7943 20.2435 7.52455 20.0356 7.26546 19.8253C7.00636 19.6147 6.7581 19.3838 6.52066 19.1325C6.39012 19.1866 6.25886 19.2273 6.12687 19.2543C5.99489 19.2814 5.85812 19.295 5.71656 19.295C5.16244 19.295 4.68703 19.0967 4.29035 18.7002C3.89385 18.3037 3.6956 17.8283 3.6956 17.274C3.6956 16.9477 3.76719 16.6443 3.91037 16.3637C4.05337 16.0831 4.24982 15.8505 4.49971 15.6658C4.35526 15.2505 4.25253 14.8307 4.1915 14.4064C4.13047 13.9821 4.09996 13.5352 4.09996 13.0658C4.09996 12.5963 4.13047 12.1495 4.1915 11.7252C4.25253 11.3009 4.35526 10.8811 4.49971 10.4658C4.24982 10.2811 4.05337 10.0484 3.91037 9.76785C3.76719 9.48727 3.6956 9.18385 3.6956 8.85758C3.6956 8.30328 3.89385 7.82788 4.29035 7.43138C4.68703 7.03488 5.16244 6.83663 5.71656 6.83663C5.85812 6.83663 5.99489 6.85017 6.12687 6.87725C6.25886 6.90433 6.39012 6.94496 6.52066 6.99913C7.1165 6.34913 7.79467 5.80574 8.55517 5.36898C9.31549 4.93222 10.129 4.60893 10.9956 4.39913C11.072 3.89917 11.3029 3.47902 11.6884 3.13867C12.0737 2.7985 12.5165 2.62842 13.0166 2.62842C13.5166 2.62842 13.9592 2.79787 14.3445 3.13677C14.73 3.47549 14.9609 3.88933 15.0373 4.37827C15.9179 4.58808 16.7383 4.90856 17.4986 5.33973C18.2591 5.77108 18.9373 6.30615 19.5331 6.94496C19.6637 6.89079 19.7887 6.85369 19.9082 6.83365C20.0276 6.81343 20.1525 6.80331 20.2831 6.80331C20.8372 6.80331 21.3126 7.00156 21.7093 7.39806C22.1058 7.79456 22.304 8.26997 22.304 8.82427C22.304 9.15054 22.2352 9.44836 22.0976 9.71775C21.9602 9.98732 21.7721 10.2145 21.5332 10.3992C21.6777 10.8255 21.7804 11.2592 21.8414 11.7003C21.9026 12.1412 21.9332 12.5963 21.9332 13.0658C21.9332 13.5352 21.9026 13.9911 21.8414 14.4335C21.7804 14.8759 21.6777 15.3047 21.5332 15.72C21.7651 15.9047 21.9481 16.1283 22.0822 16.3908C22.2162 16.6533 22.2832 16.9477 22.2832 17.274C22.2832 17.8283 22.0849 18.3037 21.6884 18.7002C21.2919 19.0967 20.8165 19.295 20.2622 19.295C20.1317 19.295 20.0067 19.2831 19.8874 19.2595C19.7678 19.2358 19.6428 19.2004 19.5123 19.1533C19.2748 19.4046 19.0328 19.6411 18.7862 19.8626C18.5397 20.0842 18.2637 20.2977 17.9582 20.5031L19.2623 23.5032H17.7164L16.7081 21.1824C16.4275 21.3117 16.1525 21.4221 15.8831 21.5136C15.6137 21.6053 15.3318 21.6852 15.0373 21.7533C14.9609 22.2423 14.73 22.6561 14.3445 22.9948C13.9592 23.3337 13.5166 23.5032 13.0166 23.5032C12.5165 23.5032 12.0737 23.3331 11.6884 22.9929C11.3029 22.6526 11.072 22.2324 10.9956 21.7325C10.6901 21.6644 10.3999 21.5845 10.1249 21.4928C9.84993 21.4012 9.57214 21.2908 9.29156 21.1615L8.26239 23.5032H6.71648ZM8.54569 19.3118L10.454 15.0407C10.2359 14.7643 10.0668 14.4588 9.94671 14.1242C9.82664 13.7895 9.7666 13.4367 9.7666 13.0658C9.7666 12.1825 10.0874 11.42 10.7289 10.7783C11.3706 10.1366 12.1331 9.81579 13.0166 9.81579C13.8999 9.81579 14.6624 10.1366 15.3041 10.7783C15.9456 11.42 16.2663 12.1825 16.2663 13.0658C16.2663 13.4367 16.2001 13.7967 16.0675 14.1459C15.9348 14.4953 15.7539 14.8116 15.5248 15.0949L17.4331 19.3326C17.6373 19.1811 17.8335 19.0294 18.0216 18.8773C18.2099 18.7251 18.3901 18.5504 18.5622 18.3533C18.4443 18.202 18.3613 18.0336 18.3133 17.8482C18.2654 17.6627 18.2415 17.4713 18.2415 17.274C18.2415 16.6962 18.4557 16.2085 18.8842 15.8107C19.3127 15.4127 19.8054 15.2339 20.3624 15.2742C20.4707 14.9131 20.5554 14.5529 20.6165 14.1938C20.6777 13.8349 20.7083 13.4589 20.7083 13.0658C20.7083 12.6727 20.6777 12.2911 20.6165 11.921C20.5554 11.5508 20.4707 11.1852 20.3624 10.8241C19.8054 10.8644 19.3161 10.6855 18.8945 10.2876C18.4731 9.88982 18.2624 9.40205 18.2624 8.82427C18.2624 8.64083 18.2936 8.46199 18.3561 8.28775C18.4186 8.11333 18.4942 7.95047 18.583 7.79917C18.0594 7.25461 17.4765 6.80006 16.8343 6.43552C16.1919 6.07098 15.5082 5.7894 14.7832 5.59079C14.6193 5.9185 14.3821 6.18031 14.0718 6.37621C13.7612 6.57211 13.4095 6.67006 13.0166 6.67006C12.6235 6.67006 12.2717 6.57211 11.9612 6.37621C11.6508 6.18031 11.4136 5.9185 11.2497 5.59079C10.5025 5.7894 9.80777 6.07378 9.16535 6.44392C8.52312 6.81406 7.94019 7.27691 7.41658 7.83248C7.50541 7.98379 7.58107 8.14665 7.64354 8.32106C7.70601 8.4953 7.73725 8.67414 7.73725 8.85758C7.73725 9.44222 7.52862 9.92729 7.11135 10.3128C6.69391 10.6981 6.20677 10.8796 5.64994 10.8574C5.5416 11.2185 5.46035 11.5786 5.40619 11.9378C5.35202 12.2967 5.32494 12.6727 5.32494 13.0658C5.32494 13.4589 5.35202 13.8349 5.40619 14.1938C5.46035 14.5529 5.5416 14.9131 5.64994 15.2742C6.19287 15.2339 6.67648 15.4109 7.10079 15.8053C7.5251 16.1998 7.73725 16.6894 7.73725 17.274C7.73725 17.4713 7.71333 17.6537 7.66548 17.8211C7.61745 17.9885 7.53448 18.1478 7.41658 18.2991C7.58865 18.4963 7.76885 18.673 7.95716 18.8294C8.1453 18.9856 8.34148 19.1464 8.54569 19.3118ZM9.79558 20.024C10.022 20.1353 10.2564 20.2321 10.4987 20.3146C10.7412 20.3973 10.9915 20.4727 11.2497 20.5408C11.4136 20.2131 11.6508 19.9513 11.9612 19.7554C12.2717 19.5595 12.6235 19.4615 13.0166 19.4615C13.4095 19.4615 13.7612 19.5595 14.0718 19.7554C14.3821 19.9513 14.6193 20.2131 14.7832 20.5408C15.0346 20.4727 15.2741 20.4009 15.5018 20.3252C15.7296 20.2496 15.9568 20.1561 16.1832 20.0449L14.3832 16.0033C14.1734 16.1004 13.9564 16.1768 13.7321 16.2324C13.5079 16.288 13.2694 16.3158 13.0166 16.3158C12.7526 16.3158 12.5022 16.2852 12.2653 16.224C12.0286 16.163 11.8053 16.0713 11.5955 15.9491L9.79558 20.024ZM13.0166 14.6908C13.4499 14.6908 13.8291 14.5373 14.1541 14.2304C14.4791 13.9234 14.6416 13.5352 14.6416 13.0658C14.6416 12.6325 14.4791 12.2533 14.1541 11.9283C13.8291 11.6033 13.4499 11.4408 13.0166 11.4408C12.5472 11.4408 12.159 11.6033 11.852 11.9283C11.5451 12.2533 11.3916 12.6325 11.3916 13.0658C11.3916 13.5352 11.5451 13.9234 11.852 14.2304C12.159 14.5373 12.5472 14.6908 13.0166 14.6908Z" fill="#5A5A5A"/>
</g>
</svg>
