<svg width="57" height="59" viewBox="0 0 57 59" fill="none" xmlns="http://www.w3.org/2000/svg">
<mask id="mask0_295_624" style="mask-type:alpha" maskUnits="userSpaceOnUse" x="0" y="0" width="57" height="57">
<path d="M57 0.144043H0V56.9589H57V0.144043Z" fill="#D9D9D9"/>
</mask>
<g mask="url(#mask0_295_624)">
<path d="M9.95659 33.6591H12.2176L13.5601 29.8899H20.0551L21.4344 33.6591H23.6817L18.0589 18.7542H15.5562L9.95659 33.6591ZM14.2868 27.9274L16.7485 21.1398H16.8672L19.3289 27.9274H14.2868ZM33.1128 23.2159V20.1018C34.4041 19.504 35.7552 19.0556 37.1664 18.7565C38.5778 18.4575 40.0434 18.3079 41.5624 18.3079C42.5156 18.3079 43.4412 18.3756 44.3394 18.5109C45.2376 18.6459 46.1389 18.8242 47.0434 19.0459V22.014C46.1544 21.7042 45.2705 21.4795 44.3918 21.3398C43.5134 21.2002 42.5702 21.1303 41.5624 21.1303C40.0434 21.1303 38.5717 21.3102 37.148 21.6701C35.7245 22.03 34.3796 22.5453 33.1128 23.2159ZM33.1128 36.1904V33.0306C34.3736 32.433 35.721 31.9846 37.155 31.6854C38.5892 31.3867 40.0583 31.2375 41.5624 31.2375C42.5156 31.2375 43.4412 31.305 44.3394 31.4398C45.2376 31.5749 46.1389 31.7532 47.0434 31.9748V34.9429C46.1544 34.633 45.2705 34.4084 44.3918 34.2688C43.5134 34.1296 42.5702 34.0599 41.5624 34.0599C40.0434 34.0599 38.5717 34.2412 37.148 34.6038C35.7245 34.9663 34.3796 35.4953 33.1128 36.1904ZM33.1128 29.726V26.5662C34.4041 25.9686 35.7552 25.5202 37.1664 25.221C38.5778 24.9219 40.0434 24.7724 41.5624 24.7724C42.5156 24.7724 43.4412 24.8401 44.3394 24.9754C45.2376 25.1104 46.1389 25.2888 47.0434 25.5103V28.4785C46.1544 28.1686 45.2705 27.944 44.3918 27.8043C43.5134 27.6649 42.5702 27.5954 41.5624 27.5954C40.0434 27.5954 38.5717 27.7827 37.148 28.1577C35.7245 28.5324 34.3796 29.0551 33.1128 29.726ZM15.4375 38.066C17.4044 38.066 19.318 38.2882 21.1785 38.7329C23.039 39.1776 24.8855 39.8749 26.7188 40.825V17.5522C25.0504 16.4688 23.2448 15.6562 21.302 15.1145C19.3592 14.5728 17.4044 14.3019 15.4375 14.3019C14.0125 14.3019 12.6811 14.4134 11.4433 14.6363C10.2056 14.8596 8.93357 15.2246 7.62732 15.7311C7.44484 15.7919 7.3154 15.8793 7.239 15.9933C7.16299 16.107 7.125 16.232 7.125 16.3685V38.7578C7.125 38.9704 7.2012 39.126 7.35359 39.2248C7.50558 39.3233 7.67303 39.3345 7.85592 39.2584C8.98245 38.876 10.1713 38.5817 11.4226 38.3754C12.6742 38.1691 14.0125 38.066 15.4375 38.066ZM30.2813 40.825C32.1145 39.8749 33.961 39.1776 35.8214 38.7329C37.682 38.2882 39.5957 38.066 41.5624 38.066C42.9874 38.066 44.3258 38.1691 45.5774 38.3754C46.8286 38.5817 48.0175 38.876 49.1441 39.2584C49.3269 39.3345 49.4944 39.3233 49.6463 39.2248C49.7987 39.126 49.875 38.9704 49.875 38.7578V16.3685C49.875 16.232 49.8371 16.1107 49.761 16.0046C49.6847 15.8984 49.5551 15.8073 49.3727 15.7311C48.0663 15.2246 46.7944 14.8596 45.5566 14.6363C44.3188 14.4134 42.9874 14.3019 41.5624 14.3019C39.5957 14.3019 37.6408 14.5728 35.698 15.1145C33.7552 15.6562 31.9496 16.4688 30.2813 17.5522V40.825ZM28.5 46.0325C26.585 44.6241 24.5192 43.5364 22.3023 42.7685C20.0858 42.0006 17.7975 41.6169 15.4375 41.6169C13.9883 41.6169 12.5649 41.7768 11.1672 42.0968C9.76956 42.4171 8.42214 42.8885 7.125 43.5106C6.2787 43.8989 5.47338 43.8373 4.70903 43.3259C3.94468 42.8146 3.5625 42.09 3.5625 41.1523V15.4495C3.5625 14.9393 3.69432 14.4605 3.95795 14.0131C4.22116 13.5653 4.60097 13.2427 5.09733 13.0455C6.70482 12.2654 8.38018 11.688 10.1234 11.3132C11.8667 10.9384 13.638 10.751 15.4375 10.751C17.7484 10.751 20.0062 11.0658 22.2109 11.6955C24.4153 12.3256 26.5118 13.2552 28.5 14.4842C30.4882 13.2552 32.5847 12.3256 34.7891 11.6955C36.9939 11.0658 39.2517 10.751 41.5624 10.751C43.3619 10.751 45.1333 10.9384 46.8766 11.3132C48.6199 11.688 50.2953 12.2654 51.9027 13.0455C52.399 13.2427 52.7789 13.5653 53.042 14.0131C53.3057 14.4605 53.4375 14.9393 53.4375 15.4495V41.1523C53.4375 42.09 53.04 42.8072 52.2453 43.3034C51.4504 43.7995 50.6147 43.8532 49.7378 43.4651C48.4561 42.8579 47.1278 42.3981 45.7532 42.0856C44.3784 41.7731 42.9815 41.6169 41.5624 41.6169C39.2026 41.6169 36.9143 42.0006 34.6977 42.7685C32.4808 43.5364 30.415 44.6241 28.5 46.0325Z" fill="#005FFF"/>
</g>
</svg>
