<svg width="26" height="27" viewBox="0 0 26 27" fill="none" xmlns="http://www.w3.org/2000/svg">
<mask id="mask0_359_1391" style="mask-type:alpha" maskUnits="userSpaceOnUse" x="0" y="0" width="26" height="27">
<rect y="0.065918" width="26" height="26" fill="#D9D9D9"/>
</mask>
<g mask="url(#mask0_359_1391)">
<path d="M4.5416 15.4033H5.57294L6.18529 13.6784H9.14794L9.77708 15.4033H10.8022L8.2374 8.5824H7.09583L4.5416 15.4033ZM6.51679 12.7803L7.63967 9.67413H7.69383L8.81671 12.7803H6.51679ZM15.1041 10.6242V9.19909C15.6931 8.92555 16.3094 8.72035 16.9531 8.58348C17.5969 8.44662 18.2654 8.37819 18.9583 8.37819C19.3931 8.37819 19.8153 8.40916 20.225 8.47109C20.6347 8.53284 21.0458 8.61445 21.4584 8.71592V10.0742C21.0529 9.93241 20.6497 9.82959 20.2489 9.76567C19.8482 9.70176 19.418 9.6698 18.9583 9.6698C18.2654 9.6698 17.5941 9.75213 16.9447 9.9168C16.2954 10.0815 15.6819 10.3173 15.1041 10.6242ZM15.1041 16.5617V15.1157C15.6792 14.8422 16.2938 14.637 16.9479 14.5001C17.6021 14.3634 18.2722 14.2951 18.9583 14.2951C19.3931 14.2951 19.8153 14.326 20.225 14.3877C20.6347 14.4495 21.0458 14.5311 21.4584 14.6325V15.9908C21.0529 15.849 20.6497 15.7462 20.2489 15.6823C19.8482 15.6186 19.418 15.5867 18.9583 15.5867C18.2654 15.5867 17.5941 15.6697 16.9447 15.8356C16.2954 16.0015 15.6819 16.2436 15.1041 16.5617ZM15.1041 13.6034V12.1574C15.6931 11.8839 16.3094 11.6787 16.9531 11.5418C17.5969 11.4049 18.2654 11.3365 18.9583 11.3365C19.3931 11.3365 19.8153 11.3675 20.225 11.4294C20.6347 11.4912 21.0458 11.5728 21.4584 11.6742V13.0325C21.0529 12.8907 20.6497 12.7879 20.2489 12.724C19.8482 12.6602 19.418 12.6284 18.9583 12.6284C18.2654 12.6284 17.5941 12.7141 16.9447 12.8857C16.2954 13.0572 15.6819 13.2964 15.1041 13.6034ZM7.04167 17.42C7.93885 17.42 8.81174 17.5217 9.66035 17.7252C10.509 17.9287 11.3513 18.2478 12.1875 18.6826V8.03234C11.4265 7.53653 10.6029 7.16468 9.71669 6.91678C8.83052 6.66887 7.93885 6.54492 7.04167 6.54492C6.39167 6.54492 5.78437 6.59593 5.21977 6.69794C4.65517 6.80014 4.07496 6.96715 3.47913 7.19898C3.39589 7.22679 3.33685 7.26678 3.302 7.31896C3.26733 7.37096 3.25 7.4282 3.25 7.49067V17.7366C3.25 17.8339 3.28476 17.9051 3.35427 17.9503C3.4236 17.9954 3.49998 18.0005 3.5834 17.9657C4.09726 17.7907 4.63956 17.656 5.21029 17.5616C5.78121 17.4672 6.39167 17.42 7.04167 17.42ZM13.8125 18.6826C14.6487 18.2478 15.491 17.9287 16.3396 17.7252C17.1883 17.5217 18.0612 17.42 18.9583 17.42C19.6083 17.42 20.2188 17.4672 20.7897 17.5616C21.3604 17.656 21.9027 17.7907 22.4166 17.9657C22.5 18.0005 22.5764 17.9954 22.6457 17.9503C22.7152 17.9051 22.75 17.8339 22.75 17.7366V7.49067C22.75 7.4282 22.7327 7.37268 22.698 7.32411C22.6632 7.27554 22.6041 7.23383 22.5209 7.19898C21.925 6.96715 21.3448 6.80014 20.7802 6.69794C20.2156 6.59593 19.6083 6.54492 18.9583 6.54492C18.0612 6.54492 17.1695 6.66887 16.2833 6.91678C15.3971 7.16468 14.5735 7.53653 13.8125 8.03234V18.6826ZM13 21.0657C12.1265 20.4212 11.1842 19.9234 10.173 19.572C9.16193 19.2206 8.11814 19.045 7.04167 19.045C6.38065 19.045 5.73138 19.1182 5.09383 19.2646C4.45629 19.4112 3.84168 19.6269 3.25 19.9116C2.86397 20.0893 2.49663 20.0611 2.14798 19.8271C1.79933 19.5931 1.625 19.2615 1.625 18.8324V7.07007C1.625 6.83661 1.68513 6.6175 1.80538 6.41276C1.92544 6.20782 2.09869 6.06022 2.3251 5.96994C3.05834 5.61298 3.82254 5.34874 4.61771 5.17721C5.41288 5.00569 6.22086 4.91992 7.04167 4.91992C8.09575 4.91992 9.12564 5.06401 10.1313 5.35217C11.1368 5.64052 12.0931 6.06591 13 6.62834C13.9069 6.06591 14.8632 5.64052 15.8687 5.35217C16.8744 5.06401 17.9043 4.91992 18.9583 4.91992C19.7791 4.91992 20.5871 5.00569 21.3823 5.17721C22.1775 5.34874 22.9417 5.61298 23.6749 5.96994C23.9013 6.06022 24.0746 6.20782 24.1946 6.41276C24.3149 6.6175 24.375 6.83661 24.375 7.07007V18.8324C24.375 19.2615 24.1937 19.5897 23.8312 19.8168C23.4686 20.0438 23.0874 20.0684 22.6874 19.8908C22.1028 19.6129 21.4969 19.4025 20.8699 19.2595C20.2428 19.1165 19.6056 19.045 18.9583 19.045C17.8819 19.045 16.8381 19.2206 15.827 19.572C14.8158 19.9234 13.8735 20.4212 13 21.0657Z" fill="#5A5A5A"/>
</g>
</svg>
