<svg width="26" height="27" viewBox="0 0 26 27" fill="none" xmlns="http://www.w3.org/2000/svg">
<mask id="mask0_359_1385" style="mask-type:alpha" maskUnits="userSpaceOnUse" x="0" y="0" width="26" height="27">
<rect y="0.065918" width="26" height="26" fill="#D9D9D9"/>
</mask>
<g mask="url(#mask0_359_1385)">
<path d="M12.7709 21.7016C12.8778 21.7016 12.9865 21.6766 13.097 21.6266C13.2073 21.5766 13.2944 21.5196 13.3583 21.4557L22.0228 12.7912C22.2673 12.5468 22.4514 12.2856 22.575 12.0077C22.6985 11.73 22.7603 11.4384 22.7603 11.1329C22.7603 10.8162 22.6985 10.5113 22.575 10.2183C22.4514 9.92508 22.2673 9.66183 22.0228 9.42856L17.6895 5.09522C17.4562 4.85075 17.2034 4.67191 16.9311 4.5587C16.659 4.44567 16.3646 4.38916 16.048 4.38916C15.7425 4.38916 15.449 4.44567 15.1677 4.5587C14.8864 4.67191 14.6271 4.85075 14.3896 5.09522L13.7686 5.71624L15.7728 7.73693C16.0158 7.96895 16.1954 8.23355 16.3115 8.53074C16.4274 8.82794 16.4853 9.13624 16.4853 9.45564C16.4853 10.1168 16.2645 10.6683 15.8229 11.1099C15.3813 11.5515 14.8298 11.7723 14.1686 11.7723C13.8492 11.7723 13.5399 11.7195 13.2405 11.6139C12.9413 11.5085 12.6757 11.3397 12.4437 11.1077L10.3916 9.07241L5.68343 13.7806C5.60146 13.8626 5.53998 13.9543 5.49899 14.0557C5.45801 14.157 5.43752 14.2612 5.43752 14.3683C5.43752 14.5682 5.50558 14.739 5.64172 14.8807C5.77786 15.0224 5.94587 15.0933 6.14574 15.0933C6.25281 15.0933 6.36151 15.0683 6.47183 15.0183C6.58233 14.9683 6.66954 14.9113 6.73345 14.8474L10.2917 11.2892L11.4332 12.4307L7.89154 15.989C7.80974 16.0709 7.74835 16.1626 7.70737 16.2641C7.66638 16.3654 7.64589 16.4696 7.64589 16.5767C7.64589 16.7697 7.71567 16.936 7.85524 17.0755C7.99481 17.2151 8.1611 17.2849 8.35412 17.2849C8.46119 17.2849 8.56988 17.2599 8.6802 17.2099C8.7907 17.1599 8.87782 17.1029 8.94156 17.039L12.6249 13.3724L13.7667 14.514L10.0999 18.1973C10.025 18.2612 9.96531 18.3484 9.92089 18.4587C9.87647 18.5692 9.85426 18.6779 9.85426 18.7848C9.85426 18.978 9.92405 19.1443 10.0636 19.2839C10.2032 19.4235 10.3695 19.4933 10.5625 19.4933C10.6694 19.4933 10.7736 19.4728 10.875 19.4318C10.9763 19.3908 11.068 19.3293 11.1499 19.2474L14.8333 15.5808L15.9751 16.7224L12.2918 20.4057C12.2098 20.4877 12.1483 20.5828 12.1073 20.6912C12.0663 20.7995 12.0458 20.9037 12.0458 21.0037C12.0458 21.2036 12.1201 21.3699 12.2687 21.5026C12.4173 21.6353 12.5847 21.7016 12.7709 21.7016ZM12.7541 23.3264C12.1416 23.3264 11.6076 23.1139 11.1521 22.6891C10.6966 22.2641 10.4584 21.7349 10.4376 21.1015C9.82375 21.0598 9.31088 20.8417 8.89903 20.4474C8.48719 20.0529 8.26393 19.5348 8.22927 18.8931C7.58757 18.8516 7.06883 18.6273 6.67306 18.2204C6.2771 17.8134 6.06522 17.3015 6.03741 16.6847C5.39301 16.6432 4.86109 16.4096 4.44166 15.9838C4.02223 15.5581 3.81252 15.0196 3.81252 14.3683C3.81252 14.0489 3.87327 13.736 3.99479 13.4296C4.1163 13.1234 4.29306 12.8543 4.52508 12.6225L10.3916 6.77249L13.5647 9.94531C13.6284 10.0202 13.712 10.08 13.8155 10.1246C13.9191 10.169 14.0313 10.1912 14.1521 10.1912C14.3493 10.1912 14.5194 10.126 14.6624 9.99541C14.8055 9.86487 14.8771 9.69397 14.8771 9.48272C14.8771 9.36193 14.8549 9.24981 14.8105 9.14635C14.7659 9.04289 14.7062 8.9592 14.6312 8.89529L10.8312 5.09522C10.5979 4.85075 10.3434 4.67191 10.0677 4.5587C9.79197 4.44567 9.49577 4.38916 9.17908 4.38916C8.87358 4.38916 8.5837 4.44567 8.30943 4.5587C8.03499 4.67191 7.77562 4.85075 7.53133 5.09522L3.97285 8.67022C3.77568 8.86739 3.61426 9.1004 3.4886 9.36924C3.36293 9.63791 3.28899 9.9119 3.26679 10.1912C3.2444 10.4218 3.25478 10.6499 3.29793 10.8756C3.3409 11.1013 3.41656 11.3135 3.52489 11.5121L2.32916 12.7078C2.08469 12.355 1.9007 11.9599 1.7772 11.5224C1.65352 11.0849 1.60279 10.6412 1.62499 10.1912C1.6472 9.69253 1.75969 9.2109 1.96245 8.74633C2.16522 8.28176 2.44923 7.86684 2.81449 7.50158L6.36241 3.95366C6.76812 3.55915 7.20949 3.26231 7.68651 3.06316C8.16354 2.86383 8.66458 2.76416 9.18964 2.76416C9.71451 2.76416 10.2137 2.86383 10.6873 3.06316C11.1611 3.26231 11.5952 3.55915 11.9895 3.95366L12.6105 4.57441L13.2313 3.95366C13.6368 3.55915 14.0764 3.26231 14.55 3.06316C15.0236 2.86383 15.5229 2.76416 16.048 2.76416C16.573 2.76416 17.074 2.86383 17.5511 3.06316C18.0281 3.26231 18.4639 3.55915 18.8584 3.95366L23.1646 8.25991C23.559 8.65442 23.861 9.10338 24.0709 9.60677C24.2805 10.1102 24.3853 10.6244 24.3853 11.1494C24.3853 11.6745 24.2805 12.1738 24.0709 12.6474C23.861 13.121 23.559 13.555 23.1646 13.9493L14.4999 22.5973C14.261 22.8362 13.992 23.0174 13.6928 23.1411C13.3934 23.2646 13.0805 23.3264 12.7541 23.3264Z" fill="#5A5A5A"/>
</g>
</svg>
