<svg width="56" height="59" viewBox="0 0 56 59" fill="none" xmlns="http://www.w3.org/2000/svg">
<mask id="mask0_295_612" style="mask-type:alpha" maskUnits="userSpaceOnUse" x="0" y="0" width="56" height="57">
<path d="M56 0.144043H0V56.9589H56V0.144043Z" fill="#D9D9D9"/>
</mask>
<g mask="url(#mask0_295_612)">
<path d="M27.5058 47.4219C27.736 47.4219 27.9701 47.3672 28.2081 47.258C28.4457 47.1487 28.6333 47.0241 28.7709 46.8845L47.4329 27.951C47.9596 27.4169 48.3561 26.8461 48.6223 26.2389C48.8883 25.6321 49.0214 24.9949 49.0214 24.3273C49.0214 23.6352 48.8883 22.969 48.6223 22.3287C48.3561 21.688 47.9596 21.1127 47.4329 20.603L38.0997 11.1338C37.5972 10.5996 37.0527 10.2088 36.4662 9.96144C35.8801 9.71445 35.246 9.59097 34.5641 9.59097C33.9061 9.59097 33.274 9.71445 32.6681 9.96144C32.0622 10.2088 31.5037 10.5996 30.9922 11.1338L29.6547 12.4909L33.9714 16.9065C34.4948 17.4135 34.8816 17.9917 35.1317 18.6411C35.3813 19.2905 35.506 19.9642 35.506 20.6622C35.506 22.1069 35.0304 23.312 34.0793 24.277C33.1282 25.242 31.9403 25.7245 30.5162 25.7245C29.8283 25.7245 29.1621 25.6091 28.5172 25.3784C27.8728 25.148 27.3007 24.7792 26.801 24.2722L22.3811 19.8247L12.2405 30.113C12.0639 30.2922 11.9315 30.4926 11.8432 30.7141C11.7549 30.9355 11.7108 31.1632 11.7108 31.3972C11.7108 31.8341 11.8574 32.2073 12.1506 32.5169C12.4438 32.8266 12.8057 32.9815 13.2362 32.9815C13.4668 32.9815 13.7009 32.9269 13.9385 32.8176C14.1765 32.7083 14.3644 32.5838 14.502 32.4442L22.166 24.6688L24.6246 27.1632L16.9964 34.9388C16.8202 35.1177 16.688 35.3181 16.5997 35.5399C16.5114 35.7613 16.4673 35.989 16.4673 36.223C16.4673 36.6447 16.6176 37.0081 16.9182 37.313C17.2188 37.618 17.577 37.7705 17.9927 37.7705C18.2233 37.7705 18.4574 37.7159 18.695 37.6067C18.933 37.4974 19.1207 37.3728 19.258 37.2332L27.1913 29.221L29.6506 31.7156L21.7528 39.7643C21.5915 39.9039 21.463 40.0945 21.3673 40.3355C21.2716 40.577 21.2238 40.8145 21.2238 41.0481C21.2238 41.4703 21.3741 41.8337 21.6747 42.1387C21.9753 42.4438 22.3335 42.5963 22.7492 42.5963C22.9795 42.5963 23.2039 42.5515 23.4223 42.4619C23.6405 42.3723 23.838 42.2379 24.0144 42.059L31.9479 34.0468L34.4071 36.5414L26.4739 44.5901C26.2972 44.7693 26.1648 44.9771 26.0765 45.2139C25.9882 45.4506 25.944 45.6783 25.944 45.8968C25.944 46.3336 26.104 46.697 26.4241 46.987C26.7442 47.277 27.1047 47.4219 27.5058 47.4219ZM27.4696 50.9723C26.1504 50.9723 25.0002 50.508 24.0191 49.5797C23.038 48.651 22.525 47.4946 22.4802 46.1105C21.1581 46.0194 20.0534 45.5428 19.1664 44.6812C18.2793 43.8191 17.7985 42.687 17.7238 41.2848C16.3417 41.1941 15.2244 40.7039 14.372 39.8148C13.5191 38.9254 13.0628 37.8068 13.0029 36.459C11.6149 36.3683 10.4693 35.8579 9.56587 34.9274C8.66248 33.9972 8.2108 32.8204 8.2108 31.3972C8.2108 30.6993 8.34165 30.0155 8.60338 29.346C8.8651 28.6769 9.24581 28.0889 9.74555 27.5823L22.3811 14.799L29.2155 21.7322C29.3527 21.8958 29.5328 22.0265 29.7557 22.124C29.9788 22.221 30.2205 22.2695 30.4807 22.2695C30.9054 22.2695 31.2718 22.127 31.5798 21.8417C31.888 21.5564 32.0422 21.183 32.0422 20.7213C32.0422 20.4574 31.9944 20.2124 31.8988 19.9863C31.8027 19.7602 31.6741 19.5773 31.5126 19.4377L23.328 11.1338C22.8255 10.5996 22.2773 10.2088 21.6835 9.96144C21.0896 9.71445 20.4516 9.59097 19.7695 9.59097C19.1115 9.59097 18.4872 9.71445 17.8965 9.96144C17.3054 10.2088 16.7467 10.5996 16.2205 11.1338L8.55613 18.9459C8.13145 19.3767 7.78378 19.8859 7.51313 20.4734C7.24245 21.0605 7.0832 21.6592 7.03538 22.2695C6.98716 22.7734 7.00951 23.2718 7.10245 23.765C7.195 24.2582 7.35796 24.7219 7.59129 25.1559L5.01587 27.7687C4.48932 26.9978 4.09303 26.1344 3.82703 25.1784C3.56065 24.2224 3.45138 23.2528 3.4992 22.2695C3.54703 21.1798 3.78932 20.1274 4.22603 19.1122C4.66277 18.097 5.27448 17.1903 6.0612 16.3922L13.7029 8.63932C14.5767 7.77724 15.5274 7.12859 16.5548 6.69341C17.5822 6.25784 18.6614 6.04004 19.7923 6.04004C20.9228 6.04004 21.998 6.25784 23.018 6.69341C24.0385 7.12859 24.9735 7.77724 25.8228 8.63932L27.1603 9.99577L28.4974 8.63932C29.3708 7.77724 30.3176 7.12859 31.3377 6.69341C32.3577 6.25784 33.4332 6.04004 34.5641 6.04004C35.6949 6.04004 36.774 6.25784 37.8016 6.69341C38.829 7.12859 39.7676 7.77724 40.6173 8.63932L49.8922 18.0493C50.7417 18.9113 51.3921 19.8924 51.8442 20.9924C52.2957 22.0925 52.5214 23.2161 52.5214 24.3633C52.5214 25.5108 52.2957 26.6018 51.8442 27.6367C51.3921 28.6717 50.7417 29.62 49.8922 30.4816L31.2298 49.3791C30.7152 49.9012 30.1358 50.2971 29.4914 50.5674C28.8465 50.8373 28.1726 50.9723 27.4696 50.9723Z" fill="#005FFF"/>
</g>
</svg>
